<svg xmlns="http://www.w3.org/2000/svg" width="13.88" height="13.906" viewBox="0 0 13.88 13.906">
  <defs>
    <style>
      .cls-1 {
        fill: #2cde57;
        fill-rule: evenodd;
      }
    </style>
  </defs>
  <path id="Forma_1_copy" data-name="Forma 1 copy" class="cls-1" d="M1278.69,91.965a0.685,0.685,0,0,1-.2.589l-1.96,1.943a1.132,1.132,0,0,1-.34.25,1.384,1.384,0,0,1-.42.132l-0.09.007c-0.05,0-.11.008-0.19,0.008a6.407,6.407,0,0,1-2.43-.567A12.833,12.833,0,0,1,1271,93.2a15.825,15.825,0,0,1-2.44-2.061,16.52,16.52,0,0,1-1.7-1.943,13.51,13.51,0,0,1-1.09-1.715,10.034,10.034,0,0,1-.62-1.428,8.835,8.835,0,0,1-.28-1.1,3.574,3.574,0,0,1-.06-0.728c0.01-.177.02-0.275,0.02-0.294a1.4,1.4,0,0,1,.13-0.42,1.1,1.1,0,0,1,.25-0.346l1.96-1.958a0.63,0.63,0,0,1,.47-0.206,0.55,0.55,0,0,1,.34.11,1.207,1.207,0,0,1,.25.272l1.57,2.988a0.7,0.7,0,0,1,.07.515,0.906,0.906,0,0,1-.25.471l-0.72.721a0.335,0.335,0,0,0-.05.1,0.585,0.585,0,0,0-.02.111,2.93,2.93,0,0,0,.26.706,6.338,6.338,0,0,0,.55.861,13.57,13.57,0,0,0,2.22,2.223,6.632,6.632,0,0,0,.86.552,2.182,2.182,0,0,0,.53.214l0.18,0.036a0.435,0.435,0,0,0,.1-0.022,0.247,0.247,0,0,0,.09-0.051l0.84-.854a0.9,0.9,0,0,1,.62-0.236,0.736,0.736,0,0,1,.39.088h0.02l2.84,1.678A0.75,0.75,0,0,1,1278.69,91.965Z" transform="translate(-1264.81 -81)"/>
</svg>
