<svg xmlns="http://www.w3.org/2000/svg" width="16.156" height="16.16" viewBox="0 0 16.156 16.16">
  <defs>
    <style>
      .cls-1 {
        fill: #fff;
        fill-rule: evenodd;
      }
    </style>
  </defs>
  <path id="facebook_copy" data-name="facebook copy" class="cls-1" d="M103.717,2014H90.449A2.146,2.146,0,0,0,89,2015.45v13.27a2.132,2.132,0,0,0,1.449,1.44h6.909v-6.13H95.131v-2.22h2.228v-1.71a3.258,3.258,0,0,1,3.444-3.33,9.035,9.035,0,0,1,1.586.13v2.11h-1.581a1.02,1.02,0,0,0-1.2,1.21v1.59h2.813l-0.367,2.22H99.605v6.13h4.112a2.133,2.133,0,0,0,1.45-1.44v-13.27A2.147,2.147,0,0,0,103.717,2014Z" transform="translate(-89 -2014)"/>
</svg>
