<svg xmlns="http://www.w3.org/2000/svg" width="16.907" height="16.87" viewBox="0 0 16.907 16.87">
  <defs>
    <style>
      .cls-1 {
        fill: #fff;
        fill-rule: evenodd;
      }
    </style>
  </defs>
  <path id="insta_copy" data-name="insta copy" class="cls-1" d="M136.319,2026.94a3.781,3.781,0,0,1-3.789,3.77s-2.209.11-4.455,0.11c-2.325,0-4.691-.11-4.691-0.11a3.78,3.78,0,0,1-3.788-3.77s-0.054-2.12-.054-4.32c0-2.36.054-4.8,0.054-4.8a3.783,3.783,0,0,1,3.788-3.78s2.391-.1,4.8-0.1c2.15,0,4.347.1,4.347,0.1a3.783,3.783,0,0,1,3.789,3.78s0.108,2.44.108,4.8C136.427,2024.82,136.319,2026.94,136.319,2026.94Zm-8.35-9.82a5.315,5.315,0,1,0,5.343,5.32A5.33,5.33,0,0,0,127.969,2017.12Zm5.484-1.46a1.25,1.25,0,1,0,1.266,1.25A1.258,1.258,0,0,0,133.453,2015.66Zm-5.5,10.12a3.405,3.405,0,1,1,3.422-3.41A3.412,3.412,0,0,1,127.953,2025.78Z" transform="translate(-119.531 -2013.94)"/>
</svg>
