<svg xmlns="http://www.w3.org/2000/svg" width="16.188" height="16.19" viewBox="0 0 16.188 16.19">
  <defs>
    <style>
      .cls-1 {
        fill: #fff;
        fill-rule: evenodd;
      }
    </style>
  </defs>
  <path class="cls-1" d="M193.205,2030.13H183.8a3.394,3.394,0,0,1-3.394-3.39v-9.41a3.394,3.394,0,0,1,3.394-3.39h9.41a3.394,3.394,0,0,1,3.394,3.39v9.41A3.394,3.394,0,0,1,193.205,2030.13Zm1.418-11.16a1.117,1.117,0,0,0-.183-0.01h-2.125a0.468,0.468,0,0,0-.5.34c-0.129.31-.258,0.62-0.408,0.93a7.373,7.373,0,0,1-1.242,1.9,0.416,0.416,0,0,1-.434.22,0.714,0.714,0,0,1-.313-0.63l-0.007-2.45a0.523,0.523,0,0,0-.466-0.57h-2.208a0.684,0.684,0,0,0-.6.3c-0.095.11-.122,0.17,0.068,0.21a0.733,0.733,0,0,1,.625.67,7.765,7.765,0,0,1,.034,1.77,1.611,1.611,0,0,1-.116.5,0.3,0.3,0,0,1-.344.24,0.424,0.424,0,0,1-.158-0.09,2.068,2.068,0,0,1-.489-0.54,11.985,11.985,0,0,1-1.3-2.4,0.555,0.555,0,0,0-.529-0.39c-0.638-.02-1.276-0.02-1.908,0-0.387,0-.5.19-0.346,0.54a23.67,23.67,0,0,0,2.478,4.41,6.188,6.188,0,0,0,1.874,1.76,4.956,4.956,0,0,0,2.8.6,0.513,0.513,0,0,0,.617-0.6,1.989,1.989,0,0,1,.211-0.91,0.4,0.4,0,0,1,.52-0.24,0.555,0.555,0,0,1,.125.08,1.861,1.861,0,0,1,.353.31c0.258,0.29.509,0.58,0.781,0.85a1.507,1.507,0,0,0,1.242.51h1.948a0.482,0.482,0,0,0,.382-0.57,0.583,0.583,0,0,0-.083-0.19,3.949,3.949,0,0,0-.468-0.67,17.948,17.948,0,0,0-1.311-1.32,0.673,0.673,0,0,1-.233-0.92,0.527,0.527,0,0,1,.125-0.15c0.353-.49.733-0.97,1.086-1.46a5.168,5.168,0,0,0,.842-1.46,0.367,0.367,0,0,0-.1-0.51,0.349,0.349,0,0,0-.243-0.06h0Z" transform="translate(-180.406 -2013.94)"/>
</svg>
